# xmcd
#
# Track frame offsets: 
#        150
#        20530
#        41337
#        79340
#        100352
#        121890
#        136237
#        158982
#        193975
#        211872
#
# Disc length: 3241 seconds
#
# Revision: 2
# Processed by: cddbd v1.5.1PL0 Copyright (c) Steve Scherf et al.
# Submitted via: ExactAudioCopy v0.95a5
#
DISCID=850ca70a
DTITLE=Buddy Guy - Damn Right, I've Got The Blues
DYEAR=1991
DGENRE=Blues
TTITLE0=Damn Right, I've Got The Blues
TTITLE1=Where Is The Next One Coming From
TTITLE2=Five Long Years
TTITLE3=Mustang Sally
TTITLE4=There Is Something On Your Mind
TTITLE5=Early In The Morning
TTITLE6=Too Broke To Spend The Night
TTITLE7=Black Night
TTITLE8=Let Me Love You Baby
TTITLE9=Rememberin' Stevie
EXTD=
EXTT0=
EXTT1=
EXTT2=
EXTT3=
EXTT4=
EXTT5=
EXTT6=
EXTT7=
EXTT8=
EXTT9=
PLAYORDER=
